<?xml version="1.0" standalone="no"?>
<!DOCTYPE svg PUBLIC "-//W3C//DTD SVG 20010904//EN"
 "http://www.w3.org/TR/2001/REC-SVG-20010904/DTD/svg10.dtd">
<svg version="1.0" xmlns="http://www.w3.org/2000/svg"
 width="640.000000pt" height="640.000000pt" viewBox="0 0 640.000000 640.000000"
 preserveAspectRatio="xMidYMid meet">
<metadata>
Created by potrace 1.11, written by Peter Selinger 2001-2013
</metadata>
<g transform="translate(0.000000,640.000000) scale(0.100000,-0.100000)"
fill="#000000" stroke="none">
<path d="M2180 5747 c-14 -7 -33 -19 -43 -27 -10 -8 -113 -204 -229 -435 -115
-231 -213 -423 -217 -427 -4 -4 -202 58 -441 138 -239 80 -454 147 -478 149
-74 5 -144 -48 -158 -120 -7 -38 11 -99 131 -455 37 -107 68 -199 69 -205 2
-5 6 -17 9 -25 33 -87 85 -266 79 -271 -7 -8 -531 -272 -544 -275 -5 -1 -9 -2
-10 -3 -2 -1 -70 -37 -153 -79 -131 -67 -153 -82 -173 -117 -18 -32 -22 -50
-18 -88 9 -83 21 -92 323 -243 153 -76 281 -142 284 -147 3 -5 9 -8 13 -7 5 1
268 -125 285 -136 1 -2 -43 -141 -100 -311 -57 -169 -104 -312 -105 -318 -1
-5 -21 -63 -43 -128 -49 -140 -56 -177 -41 -221 28 -85 124 -123 218 -84 23 9
43 17 45 16 2 -2 310 98 337 109 8 4 17 7 20 8 3 0 21 6 41 13 20 7 45 15 55
17 66 16 239 83 245 95 56 107 135 222 196 286 l30 30 -66 34 c-77 40 -130 73
-186 115 -55 42 -191 180 -212 215 -9 17 -21 30 -25 30 -4 0 -8 4 -8 10 0 5
-16 34 -35 65 -20 30 -32 55 -28 55 4 0 3 4 -3 8 -14 9 -70 152 -89 227 -24
94 -28 131 -28 265 -1 129 5 196 23 265 6 22 13 49 15 59 47 202 231 461 425
598 105 73 251 145 330 162 14 3 43 10 65 16 67 17 135 24 260 24 155 0 219
-10 345 -51 269 -88 496 -279 630 -530 19 -35 37 -63 41 -63 3 0 25 7 48 15
22 8 41 12 41 9 0 -2 15 2 33 9 17 8 35 14 40 15 8 0 82 13 111 18 11 2 23 7
27 11 6 8 47 120 55 153 4 18 182 549 191 570 3 8 7 17 8 20 0 3 13 44 28 91
37 114 30 160 -33 213 -50 42 -87 43 -203 5 -56 -18 -104 -33 -107 -34 -3 0
-77 -25 -165 -55 -88 -30 -162 -55 -165 -55 -3 0 -90 -29 -193 -64 -104 -35
-189 -61 -190 -60 -12 20 -171 346 -172 351 0 3 -3 9 -6 13 -4 3 -62 117 -129
252 -108 215 -128 248 -159 267 -42 24 -105 30 -141 13z"/>
<path d="M2138 4355 c-2 -2 -26 -7 -53 -11 -77 -10 -270 -85 -295 -115 -3 -3
-23 -18 -45 -32 -157 -106 -295 -323 -332 -522 -15 -80 -5 -336 14 -367 2 -5
6 -17 8 -28 2 -10 10 -34 18 -52 8 -18 23 -51 32 -73 20 -45 79 -134 119 -180
14 -16 26 -34 26 -39 0 -5 3 -7 6 -3 3 3 17 -7 30 -22 20 -25 103 -84 184
-133 31 -18 155 -64 195 -73 24 -4 52 5 131 44 55 27 113 53 127 56 15 4 27
12 28 19 1 14 4 31 19 98 6 29 14 66 17 83 14 85 131 345 189 422 13 17 24 36
24 41 0 6 3 12 8 14 4 2 25 26 46 53 80 102 231 241 324 299 53 33 52 39 -24
152 -58 88 -154 183 -239 239 -69 45 -185 96 -247 109 -13 3 -34 8 -48 11 -27
7 -256 16 -262 10z"/>
<path d="M3659 3756 c-2 -2 -26 -6 -54 -9 -213 -22 -452 -139 -618 -301 -137
-133 -219 -260 -281 -431 -47 -130 -58 -200 -60 -353 -1 -109 -2 -112 -23
-113 -13 -1 -26 -2 -30 -3 -5 -1 -30 -5 -57 -10 -111 -18 -277 -89 -380 -163
-117 -85 -231 -221 -296 -354 -17 -35 -35 -71 -39 -79 -5 -9 -12 -31 -17 -50
-4 -19 -9 -38 -10 -42 -1 -5 -3 -9 -4 -10 -1 -2 -4 -12 -5 -23 -2 -11 -8 -42
-13 -69 -6 -27 -9 -108 -7 -180 4 -141 28 -250 81 -362 14 -29 25 -56 24 -60
-1 -4 2 -10 7 -13 4 -3 29 -37 55 -76 58 -87 132 -163 223 -230 73 -53 186
-115 211 -115 8 0 14 -5 14 -12 0 -6 3 -9 6 -5 3 3 18 1 33 -5 29 -11 37 -13
136 -33 59 -12 301 -14 1560 -12 l1490 2 90 28 c441 138 715 510 701 952 -6
203 -54 349 -168 519 -38 55 -144 168 -194 206 -76 57 -166 109 -234 134 l-45
17 -1 82 c-1 45 -4 93 -8 107 -3 14 -8 36 -11 49 -12 61 -89 193 -149 254
-139 144 -290 207 -482 201 -86 -2 -132 -7 -141 -14 -2 -2 -6 -3 -10 -4 -28
-6 -90 -31 -127 -51 l-45 -24 -41 74 c-92 167 -204 286 -386 412 -74 51 -265
130 -354 147 -19 3 -46 9 -60 12 -28 6 -276 15 -281 10z"/>
</g>
</svg>
